<?xml version="1.0" standalone="no"?>
<!DOCTYPE svg PUBLIC "-//W3C//DTD SVG 20010904//EN"
 "http://www.w3.org/TR/2001/REC-SVG-20010904/DTD/svg10.dtd">
<svg version="1.0" xmlns="http://www.w3.org/2000/svg"
 width="304.000000pt" height="304.000000pt" viewBox="0 0 304.000000 304.000000"
 preserveAspectRatio="xMidYMid meet">
<metadata>
Created by potrace 1.14, written by Peter Selinger 2001-2017
</metadata>
<g transform="translate(0.000000,304.000000) scale(0.100000,-0.100000)"
fill="#000000" stroke="none">
<path d="M2225 2578 c-145 -19 -265 -83 -342 -183 -35 -45 -78 -141 -91 -202
-11 -57 -6 -243 7 -256 6 -6 11 -20 11 -31 0 -29 49 -109 96 -158 21 -22 40
-48 42 -57 12 -62 -1 -130 -39 -197 -40 -70 -38 -75 19 -68 68 8 182 76 268
161 17 17 28 20 55 14 39 -9 280 -6 322 3 48 11 141 48 177 71 75 47 126 110
161 200 56 141 32 380 -51 500 -31 46 -100 115 -113 115 -5 0 -22 9 -38 20
-33 24 -113 51 -194 66 -52 9 -228 11 -290 2z"/>
<path d="M357 2292 c-6 -10 -20 -70 -31 -127 -1 -5 -6 -16 -10 -24 -7 -11 -6
-12 5 -6 11 7 12 6 2 -6 -13 -17 -15 -217 -1 -225 5 -3 4 -12 -3 -20 -7 -9 -8
-14 -1 -14 6 0 9 -8 7 -17 -1 -10 2 -24 8 -30 6 -9 6 -13 -2 -13 -7 0 -9 -5
-4 -12 8 -15 10 -19 19 -68 10 -54 12 -65 15 -65 1 0 2 -15 3 -32 1 -18 0 -33
-4 -33 -3 0 -7 -12 -8 -26 -1 -15 -6 -32 -12 -39 -5 -6 -7 -15 -3 -18 3 -4 1
-7 -5 -7 -6 0 -9 -9 -7 -20 2 -11 0 -20 -6 -20 -5 0 -8 -3 -7 -7 3 -14 -24
-97 -35 -112 -10 -12 -9 -13 3 -6 12 7 13 6 3 -7 -7 -8 -10 -18 -6 -21 3 -4 2
-7 -4 -7 -5 0 -10 -6 -11 -12 0 -7 -5 -31 -11 -52 -5 -22 -8 -43 -5 -47 2 -4
0 -10 -6 -14 -6 -4 -8 -11 -5 -16 4 -5 2 -9 -2 -9 -5 0 -8 -24 -8 -54 1 -36
-2 -53 -9 -48 -6 3 -5 -1 1 -10 7 -8 10 -18 6 -21 -3 -4 0 -13 7 -22 9 -11 9
-15 1 -15 -9 0 -9 -6 0 -22 7 -13 11 -24 10 -26 -1 -1 7 -23 18 -47 11 -25 20
-48 20 -50 1 -7 20 -30 56 -66 l30 -30 -25 -20 -25 -21 25 14 c14 8 32 14 40
13 19 0 22 -45 4 -46 -35 -3 -54 -15 -54 -32 1 -8 5 -7 13 3 7 8 21 17 32 18
11 2 28 11 38 19 10 10 17 12 17 5 0 -7 7 -12 15 -12 27 0 16 -20 -20 -37 -19
-9 -35 -21 -35 -26 0 -5 16 1 35 13 19 12 35 18 36 13 0 -4 3 0 7 9 6 16 10
16 34 4 15 -8 29 -12 31 -9 3 2 15 -1 27 -7 18 -10 21 -10 14 2 -6 10 -5 11 7
2 8 -6 33 -10 57 -10 23 1 42 -2 42 -5 0 -4 8 -6 18 -5 19 4 114 -23 122 -33
3 -4 31 -20 64 -35 41 -20 74 -29 110 -29 61 1 100 9 104 23 2 6 8 8 13 5 5
-4 18 3 30 14 12 11 26 18 31 15 4 -3 8 0 8 5 0 6 3 10 8 9 4 -1 17 3 28 10
12 6 39 13 61 15 21 1 43 5 48 8 6 2 28 4 50 4 22 0 43 4 47 10 5 6 8 6 8 -1
0 -8 11 -8 38 2 45 16 72 18 72 4 0 -5 8 -10 18 -10 16 1 16 1 0 11 -23 13
-23 21 3 37 17 11 20 11 13 0 -6 -10 -5 -11 8 -1 8 7 18 10 22 6 4 -4 4 0 0
10 -5 14 0 17 22 18 16 0 23 3 16 6 -9 3 -5 12 13 29 14 13 24 24 21 24 -3 0
8 15 25 32 16 18 27 38 24 45 -2 7 0 13 5 13 7 0 32 57 36 85 1 6 3 12 4 15 9
18 5 138 -4 149 -8 11 -8 13 2 7 6 -4 12 -2 12 3 0 6 -5 11 -11 11 -5 0 -7 5
-4 11 4 5 2 22 -4 37 -6 15 -12 38 -15 52 -4 26 -8 40 -22 75 -4 11 -8 26 -10
33 -12 60 -29 112 -37 112 -5 0 -7 6 -4 14 3 8 3 17 -1 20 -3 4 -7 12 -9 19
-15 66 -31 106 -38 100 -5 -4 -3 0 4 10 7 9 11 17 7 17 -3 0 -1 11 4 24 5 13
12 44 15 67 4 24 12 47 18 51 8 5 7 8 -3 8 -9 0 -11 3 -5 8 6 4 11 21 12 37 2
17 5 55 7 85 3 30 5 57 6 60 2 6 -1 100 -3 115 -1 6 -6 13 -12 17 -6 5 -5 8 4
8 9 0 10 4 4 13 -6 6 -11 19 -11 27 0 8 -3 24 -5 35 -17 69 -21 81 -29 86 -11
7 -82 -11 -94 -24 -4 -4 -16 -7 -26 -7 -10 0 -18 -4 -18 -10 0 -5 -7 -7 -15
-4 -8 4 -15 2 -15 -3 0 -5 -10 -9 -22 -10 -11 -1 -25 -8 -29 -15 -5 -7 -9 -9
-9 -4 0 5 -7 3 -15 -4 -8 -7 -15 -9 -15 -6 0 4 -10 -2 -22 -13 -11 -11 -24
-18 -29 -16 -4 3 -14 -1 -21 -9 -20 -19 -81 -51 -93 -47 -5 1 -7 -1 -2 -5 4
-4 -14 -20 -40 -36 -27 -15 -43 -28 -38 -28 6 0 -3 -7 -20 -16 -31 -16 -163
-23 -184 -10 -6 4 -11 3 -11 -3 0 -8 -119 69 -166 108 -7 6 -15 7 -18 4 -3 -4
-6 -1 -6 5 0 7 -6 12 -14 12 -8 0 -16 4 -18 8 -5 13 -171 89 -174 80 0 -2 -7
2 -15 8 -13 10 -87 38 -99 37 -3 0 -15 3 -27 8 -12 4 -24 5 -26 1z"/>
<path d="M1640 670 c14 -10 27 -17 29 -14 6 5 -31 33 -44 33 -5 1 1 -8 15 -19z"/>
<path d="M1580 647 c0 -18 58 -48 66 -35 4 6 3 8 -3 5 -6 -4 -22 4 -37 18 -14
13 -26 19 -26 12z"/>
<path d="M1680 638 c0 -6 3 -8 7 -5 3 4 15 0 25 -10 10 -9 18 -13 18 -8 0 9
-31 34 -42 35 -5 0 -8 -5 -8 -12z"/>
<path d="M280 630 c-9 -6 -10 -10 -3 -10 6 0 15 5 18 10 8 12 4 12 -15 0z"/>
<path d="M1662 584 c10 -10 20 -16 22 -13 3 3 -5 11 -17 18 -21 13 -21 12 -5
-5z"/>
<path d="M304 568 l-19 -21 28 18 c28 18 33 25 19 25 -5 0 -17 -10 -28 -22z"/>
</g>
</svg>
